<svg xmlns="http://www.w3.org/2000/svg" viewBox="0 0 609 609" role="img" aria-label="Guías de Alicante"><title>Guías de Alicante</title><g transform="translate(0 609) scale(.1 -.1)" stroke="none"><path fill="#C8402A" d="M330 2974 l0 -2589 409 2 c442 2 601 13 849 59 434 80 742 237 817
417 19 46 19 127 0 173 -21 52 -129 159 -210 209 -65 41 -186 101 -536 268
-288 137 -412 247 -426 379 -8 80 21 140 110 225 114 110 285 200 566 297 314
109 946 264 1581 388 91 17 167 33 169 34 2 2 -37 53 -85 114 -49 61 -113 141
-142 178 -48 61 -82 86 -350 263 -163 108 -314 210 -336 225 -36 27 -46 48
-172 364 -129 326 -134 335 -166 347 -18 7 -121 35 -228 63 -107 28 -276 73
-375 100 -99 27 -199 54 -222 60 -24 6 -47 19 -52 28 -5 10 -25 70 -44 133
-19 63 -54 173 -77 244 -24 72 -61 189 -83 262 l-40 132 -96 21 c-53 12 -181
41 -286 65 -341 78 -499 114 -537 120 l-38 7 0 -2588z"/><path fill="#1B3A6B" d="M3581 5475 c-98 -28 -267 -135 -244 -155 4 -4 33 -16 63 -25 98 -32
254 -110 396 -199 76 -48 148 -97 159 -108 l20 -20 -27 6 c-130 30 -299 31
-408 1 -136 -36 -287 -148 -349 -259 -42 -74 -81 -212 -66 -235 3 -5 47 6 98
24 50 18 154 47 230 64 143 33 419 82 425 76 2 -1 -36 -29 -85 -60 -251 -163
-373 -403 -334 -655 12 -73 52 -180 68 -180 4 1 30 31 57 67 74 100 342 412
531 618 l55 60 0 -55 c0 -72 -37 -1009 -50 -1260 -22 -424 -60 -581 -155 -640
-25 -16 -108 -35 -307 -70 -605 -108 -936 -194 -1146 -296 -194 -94 -229 -186
-110 -289 92 -79 256 -146 823 -334 297 -98 596 -202 664 -231 335 -143 559
-293 687 -463 111 -147 141 -284 99 -449 l-7 -28 571 0 571 0 0 1160 0 1159
-62 -5 c-35 -3 -211 -16 -393 -29 -181 -14 -426 -35 -543 -47 -239 -25 -245
-24 -289 40 -26 40 -39 100 -53 247 -16 181 -45 792 -65 1405 l-6 175 77 -80
c142 -149 484 -554 539 -639 l19 -28 23 46 c108 213 51 497 -138 685 -43 42
-110 97 -148 121 -39 25 -71 48 -71 51 0 9 225 -27 373 -60 75 -16 189 -47
254 -69 65 -22 120 -38 122 -37 1 2 -2 35 -9 74 -50 299 -338 483 -692 443
-57 -7 -114 -15 -128 -18 -22 -6 -23 -5 -10 9 64 66 386 245 554 308 l89 33
-44 39 c-179 155 -432 167 -646 31 -71 -45 -197 -174 -238 -243 -16 -28 -33
-51 -37 -51 -4 0 -31 35 -59 78 -93 138 -212 236 -347 284 -75 28 -225 34
-301 13z"/></g></svg>